<?xml version="1.0" encoding="UTF-8" standalone="no"?>
<!DOCTYPE svg PUBLIC "-//W3C//DTD SVG 1.1//EN" "http://www.w3.org/Graphics/SVG/1.1/DTD/svg11.dtd">
<!-- Created with Vectornator (http://vectornator.io/) -->
<svg height="100%" stroke-miterlimit="10" style="fill-rule:nonzero;clip-rule:evenodd;stroke-linecap:round;stroke-linejoin:round;" version="1.1" viewBox="0 0 24 24" width="100%" xml:space="preserve" xmlns="http://www.w3.org/2000/svg" xmlns:vectornator="http://vectornator.io" xmlns:xlink="http://www.w3.org/1999/xlink">
<defs/>
<g id="무제" vectornator:layerName="무제">
<path d="M5.30202 10.1839C6.2894 9.19656 7.89063 9.19063 8.87849 10.1785C9.86635 11.1663 9.8604 12.7676 8.87302 13.7549C7.88563 14.7423 6.28441 14.7483 5.29656 13.7604C4.3087 12.7726 4.31464 11.1713 5.30202 10.1839ZM7.96919 11.0878C7.48703 10.6056 6.69998 10.6046 6.21132 11.0933C5.72266 11.5819 5.72371 12.369 6.20586 12.8511C6.68802 13.3333 7.47506 13.3343 7.96372 12.8456C8.45238 12.357 8.45134 11.5699 7.96919 11.0878Z" fill="#1c274c" fill-rule="evenodd" opacity="1" stroke="none" vectornator:layerName="path"/>
<path d="M18.4452 15.8697C17.9618 15.7901 17.6113 15.5695 17.3617 15.3103C17.1939 15.618 16.9676 15.862 16.6995 16.0446C16.1453 16.4221 15.5061 16.4722 15.0805 16.4123L15.0731 16.4113L15.0657 16.41C14.3034 16.2845 13.8494 15.8292 13.6013 15.4252C13.4797 15.2272 13.405 15.0391 13.3602 14.9002C13.3376 14.8301 13.3219 14.7705 13.3115 14.7257C13.3088 14.7139 13.3063 14.703 13.3042 14.6932C13.2576 14.5391 13.2394 14.3995 13.2309 14.2889L13.22 14.2889L12.6583 14.29C12.5376 14.632 12.3564 14.9527 12.182 15.218C11.9005 15.6465 11.5778 16.0186 11.3574 16.239C8.99238 18.604 5.16202 18.6146 2.80216 16.2547C0.442286 13.8948 0.452858 10.0645 2.81784 7.69952C5.18282 5.33454 9.01312 5.32399 11.373 7.68387C11.9289 8.23979 12.2785 8.84243 12.4891 9.30243C12.5427 9.41953 12.5877 9.52826 12.6251 9.62576L21.4035 9.60779C21.7137 9.60717 22.1653 9.69404 22.5576 9.9761C22.983 10.282 23.2913 10.7866 23.2899 11.4942L23.2877 12.5611C23.2877 12.5776 23.287 12.594 23.2857 12.6103C23.2631 12.8965 23.1562 13.3083 22.8906 13.666C22.6057 14.0496 22.1419 14.3595 21.4879 14.3608L20.8025 14.3622C20.6647 14.8706 20.3654 15.2542 19.9892 15.5095C19.5012 15.8406 18.9155 15.9361 18.46 15.8719L18.4525 15.8709L18.4452 15.8697ZM10.4637 8.59315C8.60954 6.73897 5.59346 6.74251 3.72714 8.60882C1.86082 10.4751 1.85729 13.4912 3.71147 15.3454C5.56563 17.1996 8.58174 17.1961 10.4481 15.3297C10.6137 15.1641 10.8791 14.8593 11.1074 14.5118C11.3462 14.1482 11.4901 13.8191 11.5115 13.5885C11.5422 13.2585 11.8189 13.0058 12.1505 13.0051L13.2174 13.0029C13.4614 13.0025 13.717 13.023 13.9384 13.1202C14.2186 13.2434 14.3877 13.4626 14.459 13.7135C14.5012 13.8624 14.5066 14.0394 14.509 14.1132L14.5099 14.1381C14.5142 14.2269 14.5216 14.2806 14.5383 14.3312L14.5543 14.3791L14.5614 14.4229L14.5638 14.4335C14.5672 14.4478 14.5736 14.4729 14.5841 14.5055C14.6056 14.5722 14.6414 14.6616 14.6971 14.7522C14.8025 14.9239 14.9677 15.0883 15.2671 15.1399C15.4635 15.1658 15.7535 15.133 15.9757 14.9818C16.1614 14.8552 16.3966 14.5814 16.398 13.9035C16.3987 13.5494 16.6856 13.2625 17.0397 13.2618L17.3953 13.2611C17.7303 13.2604 18.0093 13.5169 18.0373 13.85C18.0375 13.8519 18.0381 13.8571 18.0392 13.8653C18.0416 13.8823 18.0462 13.9109 18.0543 13.9474C18.0711 14.0224 18.1003 14.12 18.1487 14.217C18.2397 14.3996 18.3786 14.553 18.6463 14.5995C18.8132 14.6209 19.0679 14.5805 19.2671 14.4454C19.4364 14.3305 19.5981 14.1284 19.599 13.7191C19.5997 13.365 19.8865 13.0782 20.2406 13.0775L21.4853 13.0749C21.6848 13.0745 21.7848 12.998 21.8581 12.8994C21.9448 12.7826 21.99 12.6291 22.0018 12.5287L22.0039 11.4916C22.0045 11.2034 21.8992 11.0866 21.8068 11.0201C21.6813 10.9299 21.5108 10.8935 21.4061 10.8937L12.1571 10.9127C11.8584 10.9133 11.5991 10.7071 11.5325 10.4159L11.5316 10.4124C11.5305 10.408 11.5284 10.3995 11.5251 10.3873C11.5184 10.3629 11.5071 10.3237 11.4904 10.2721C11.457 10.1688 11.4022 10.0175 11.3199 9.83778C11.1543 9.47615 10.8837 9.01317 10.4637 8.59315ZM18.0373 13.85C18.0375 13.8518 18.0376 13.8536 18.0378 13.8555L18.0376 13.854L18.0373 13.85Z" fill="#1c274c" fill-rule="evenodd" opacity="1" stroke="none" vectornator:layerName="path"/>
</g>
</svg>
